<?xml version="1.0" encoding="UTF-8" standalone="no"?>
<svg
   xmlns:dc="http://purl.org/dc/elements/1.1/"
   xmlns:cc="http://creativecommons.org/ns#"
   xmlns:rdf="http://www.w3.org/1999/02/22-rdf-syntax-ns#"
   xmlns:svg="http://www.w3.org/2000/svg"
   xmlns="http://www.w3.org/2000/svg"
   xmlns:sodipodi="http://sodipodi.sourceforge.net/DTD/sodipodi-0.dtd"
   xmlns:inkscape="http://www.inkscape.org/namespaces/inkscape"
   version="1.1"
   viewBox="0 0 32 32"
   id="svg15"
   sodipodi:docname="akonadi.svg"
   width="32"
   height="32"
   inkscape:version="0.92.4 5da689c313, 2019-01-14">
  <metadata
     id="metadata19">
    <rdf:RDF>
      <cc:Work
         rdf:about="">
        <dc:format>image/svg+xml</dc:format>
        <dc:type
           rdf:resource="http://purl.org/dc/dcmitype/StillImage" />
        <dc:title />
      </cc:Work>
    </rdf:RDF>
  </metadata>
  <sodipodi:namedview
     pagecolor="#c8c8c8"
     bordercolor="#666666"
     borderopacity="1"
     objecttolerance="10"
     gridtolerance="10"
     guidetolerance="10"
     inkscape:pageopacity="0"
     inkscape:pageshadow="2"
     inkscape:window-width="1920"
     inkscape:window-height="1027"
     id="namedview17"
     showgrid="true"
     inkscape:zoom="7.0925926"
     inkscape:cx="1.0574413"
     inkscape:cy="16"
     inkscape:window-x="0"
     inkscape:window-y="28"
     inkscape:window-maximized="1"
     inkscape:current-layer="svg15">
    <inkscape:grid
       type="xygrid"
       id="grid826" />
  </sodipodi:namedview>
  <defs
     id="defs3">
    <style
       id="current-color-scheme"
       type="text/css">.ColorScheme-Text{color:#eaeaea}</style>
  </defs>
  <g
     id="22-22-akonadi"
     transform="translate(-35.389034)">
    <path
       class="ColorScheme-Text"
       d="m 11,13 c -4.418,0 -8,0.895 -8,2 v 12 c 0,1.105 3.582,2 8,2 4.418,0 8,-0.895 8,-2 V 15 c 0,-1.105 -3.582,-2 -8,-2 z m 0,1 c 3.866,0 7,0.448 7,1 0,0.552 -3.134,1 -7,1 -3.866,0 -7,-0.448 -7,-1 0,-0.552 3.134,-1 7,-1 z"
       id="path5"
       inkscape:connector-curvature="0"
       style="color:#eaeaea;fill:#eaeaea;fill-opacity:1" />
    <path
       d="M 0,10 V 32 H 22 V 10 Z"
       id="path7"
       inkscape:connector-curvature="0"
       style="fill:none" />
  </g>
  <g
     id="akonadi"
     transform="translate(-22)">
    <path
       class="ColorScheme-Text"
       d="M 38,4 C 31.3726,4 26,5.3431 26,7 v 18 c 0,1.6569 5.3726,3 12,3 6.6274,0 12,-1.3431 12,-3 V 7 C 50,5.3431 44.6274,4 38,4 Z m 0,1 C 44.0751,5 49,5.89543 49,7 49,8.10457 44.0751,9 38,9 31.9249,9 27,8.10457 27,7 27,5.89543 31.9249,5 38,5 Z"
       id="path10"
       inkscape:connector-curvature="0"
       style="color:#eaeaea;fill:#eaeaea;fill-opacity:1" />
    <path
       d="M 22,0 V 32 H 54 V 0 Z"
       id="path12"
       inkscape:connector-curvature="0"
       style="fill:none" />
  </g>
</svg>
