<?xml version="1.0" encoding="UTF-8" standalone="no"?>
<svg
   xmlns:dc="http://purl.org/dc/elements/1.1/"
   xmlns:cc="http://creativecommons.org/ns#"
   xmlns:rdf="http://www.w3.org/1999/02/22-rdf-syntax-ns#"
   xmlns:svg="http://www.w3.org/2000/svg"
   xmlns="http://www.w3.org/2000/svg"
   xmlns:sodipodi="http://sodipodi.sourceforge.net/DTD/sodipodi-0.dtd"
   xmlns:inkscape="http://www.inkscape.org/namespaces/inkscape"
   id="svg"
   version="1.1"
   viewBox="0 0 22 22"
   sodipodi:docname="notification.svg"
   inkscape:version="1.0 (4035a4fb49, 2020-05-01)">
  <metadata
     id="metadata46">
    <rdf:RDF>
      <cc:Work
         rdf:about="">
        <dc:format>image/svg+xml</dc:format>
        <dc:type
           rdf:resource="http://purl.org/dc/dcmitype/StillImage" />
        <dc:title />
      </cc:Work>
    </rdf:RDF>
  </metadata>
  <sodipodi:namedview
     inkscape:document-rotation="0"
     pagecolor="#c8c8c8"
     bordercolor="#666666"
     borderopacity="1"
     objecttolerance="10"
     gridtolerance="10"
     guidetolerance="10"
     inkscape:pageopacity="0"
     inkscape:pageshadow="2"
     inkscape:window-width="1920"
     inkscape:window-height="1023"
     id="namedview44"
     showgrid="true"
     inkscape:zoom="6.8219733"
     inkscape:cx="-18.457763"
     inkscape:cy="17.733364"
     inkscape:window-x="0"
     inkscape:window-y="32"
     inkscape:window-maximized="1"
     inkscape:current-layer="svg">
    <inkscape:grid
       type="xygrid"
       id="grid871" />
  </sodipodi:namedview>
  <defs
     id="defs3">
    <style
       id="current-color-scheme"
       type="text/css">.ColorScheme-Text { color:#dedede; } .ColorScheme-Highlight { color:#5294e2; } .ColorScheme-ButtonBackground { color:#dedede; }</style>
  </defs>
  <g
     id="notification-active">
    <rect
       y="40"
       width="22"
       height="22"
       opacity="0"
       id="rect5" />
    <path
       class="ColorScheme-Highlight"
       d="m11 43c-4.4183 0-8 3.5817-8 8s3.5817 8 8 8c4.4183 0 8-3.5817 8-8s-3.5817-8-8-8z"
       color="#5294e2"
       fill="currentColor"
       id="path7"
       style="fill:#eaeaea;fill-opacity:1" />
    <path
       class="ColorScheme-Text"
       d="m10 47v6h2v-6zm1 7c-0.45315 0-1 0.51843-1 0.98047 0 0.46204 0.54685 1.0195 1 1.0195s1-0.55749 1-1.0195c0-0.46204-0.54685-0.98047-1-0.98047z"
       color="#dedede"
       fill="#fff"
       fill-opacity=".94118"
       id="path9"
       style="fill:#323232;fill-opacity:0.94117999" />
  </g>
  <g
     fill="currentColor"
     id="g16">
    <path
       id="expander-bottom"
       class="ColorScheme-Text"
       d="m-18 23 2-2 2 2z" />
    <path
       id="expander-top"
       class="ColorScheme-Text"
       d="m-18 17 2 2 2-2z" />
    <path
       id="expander-right"
       class="ColorScheme-Text"
       d="m-13 18-2 2 2 2z" />
    <path
       id="expander-left"
       class="ColorScheme-Text"
       d="m-19 18 2 2-2 2z" />
  </g>
  <g
     id="notification-inactive">
    <rect
       class="ColorScheme-Text"
       width="22"
       height="22"
       fill-opacity="0"
       id="rect18" />
    <path
       class="ColorScheme-Text"
       d="m11 3a8 8 0 0 0-8 8 8 8 0 0 0 8 8 8 8 0 0 0 8-8 8 8 0 0 0-8-8zm0 2a6 6 0 0 1 6 6 6 6 0 0 1-6 6 6 6 0 0 1-6-6 6 6 0 0 1 6-6zm-1 1v6h2v-6zm1 7c-0.45315 0-1 0.51843-1 0.98047 0 0.46204 0.54685 1.0195 1 1.0195s1-0.55749 1-1.0195c0-0.46204-0.54685-0.98047-1-0.98047z"
       color="#dedede"
       fill="currentColor"
       id="path20"
       style="fill:#eaeaea;fill-opacity:1" />
  </g>
  <g
     id="notification-disabled">
    <rect
       y="-40"
       width="22"
       height="22"
       opacity="0"
       id="rect23" />
    <path
       class="ColorScheme-Text"
       d="m11-37a8 8 0 0 0-8 8 8 8 0 0 0 8 8 8 8 0 0 0 8-8 8 8 0 0 0-8-8zm0 2a6 6 0 0 1 6 6 6 6 0 0 1-6 6 6 6 0 0 1-6-6 6 6 0 0 1 6-6zm-1 1v6h2v-6zm1 7c-0.45315 0-1 0.51843-1 0.98047 0 0.46204 0.54685 1.0195 1 1.0195s1-0.55749 1-1.0195c0-0.46204-0.54685-0.98047-1-0.98047z"
       color="#dedede"
       fill="currentColor"
       opacity=".3"
       id="path25"
       style="fill:#eaeaea;fill-opacity:1" />
  </g>
  <g
     id="notification-empty">
    <rect
       x="40"
       y="-40"
       width="22"
       height="22"
       opacity="0"
       id="rect28" />
    <path
       class="ColorScheme-Text"
       d="m51-37a8 8 0 0 0-8 8 8 8 0 0 0 8 8 8 8 0 0 0 8-8 8 8 0 0 0-8-8zm0 2a6 6 0 0 1 6 6 6 6 0 0 1-6 6 6 6 0 0 1-6-6 6 6 0 0 1 6-6z"
       color="#dedede"
       fill="currentColor"
       id="path30"
       style="fill:#eaeaea;fill-opacity:1" />
  </g>
  <g
     id="notification-progress-active">
    <rect
       x="40"
       width="22"
       height="22"
       opacity="0"
       id="rect33" />
    <path
       class="ColorScheme-Highlight"
       d="m51 3c-4.4183 0-8 3.5817-8 8 0 4.4183 3.5817 8 8 8 4.4183 0 8-3.5817 8-8 0-4.4183-3.5817-8-8-8z"
       color="#5294e2"
       fill="currentColor"
       id="path35"
       style="fill:#eaeaea;fill-opacity:1" />
  </g>
  <g
     id="notification-progress-inactive">
    <rect
       x="40"
       y="40"
       width="22"
       height="22"
       opacity="0"
       id="rect38" />
    <path
       class="ColorScheme-Text"
       d="m51 45c-3.3137 0-6 2.6863-6 6s2.6863 6 6 6 6-2.6863 6-6-2.6863-6-6-6z"
       color="#dedede"
       fill="currentColor"
       opacity=".3"
       id="path40"
       style="fill:#eaeaea;fill-opacity:1" />
  </g>
</svg>
