<?xml version="1.0" encoding="UTF-8" standalone="no"?>
<svg
   xmlns:dc="http://purl.org/dc/elements/1.1/"
   xmlns:cc="http://creativecommons.org/ns#"
   xmlns:rdf="http://www.w3.org/1999/02/22-rdf-syntax-ns#"
   xmlns:svg="http://www.w3.org/2000/svg"
   xmlns="http://www.w3.org/2000/svg"
   xmlns:sodipodi="http://sodipodi.sourceforge.net/DTD/sodipodi-0.dtd"
   xmlns:inkscape="http://www.inkscape.org/namespaces/inkscape"
   id="svg7384"
   width="32"
   height="32"
   version="1.1"
   style="enable-background:new"
   sodipodi:docname="office.svg"
   inkscape:version="0.92.4 5da689c313, 2019-01-14">
  <metadata
     id="metadata11">
    <rdf:RDF>
      <cc:Work
         rdf:about="">
        <dc:format>image/svg+xml</dc:format>
        <dc:type
           rdf:resource="http://purl.org/dc/dcmitype/StillImage" />
        <dc:title></dc:title>
      </cc:Work>
    </rdf:RDF>
  </metadata>
  <sodipodi:namedview
     pagecolor="#c8c8c8"
     bordercolor="#666666"
     borderopacity="1"
     objecttolerance="10"
     gridtolerance="10"
     guidetolerance="10"
     inkscape:pageopacity="0"
     inkscape:pageshadow="2"
     inkscape:window-width="1920"
     inkscape:window-height="973"
     id="namedview9"
     showgrid="true"
     inkscape:zoom="14.490723"
     inkscape:cx="40.247158"
     inkscape:cy="17.853638"
     inkscape:window-x="0"
     inkscape:window-y="36"
     inkscape:window-maximized="1"
     inkscape:current-layer="svg7384"
     inkscape:snap-bbox="true"
     inkscape:bbox-nodes="true"
     inkscape:snap-bbox-edge-midpoints="true"
     inkscape:object-nodes="false">
    <inkscape:grid
       type="xygrid"
       id="grid815" />
  </sodipodi:namedview>
  <defs
     id="defs8">
    <style
       id="current-color-scheme"
       type="text/css">
   .ColorScheme-Text { color:#dedede; } .ColorScheme-Highlight { color:#5294e2; } .ColorScheme-ButtonBackground { color:#dedede; }
  </style>
  </defs>
  <g
     id="office-chart-pie">
    <rect
       style="color:#bebebe;display:inline;overflow:visible;visibility:visible;opacity:0.51464431;fill:none;stroke:none;stroke-width:3;marker:none;enable-background:accumulate"
       id="rect35722"
       width="32"
       height="32"
       x="0"
       y="0" />
    <path
       inkscape:connector-curvature="0"
       id="path821"
       d="m 15.988281,2 c -1.171433,0 -2.121093,0.8029223 -2.121093,1.7929688 h -2.50586 C 10.988446,3.7929685 10.6875,4.0603594 10.6875,4.390625 V 6.78125 c 0,0.3298903 0.301368,0.5976564 0.673828,0.5976562 h 9.277344 C 21.011552,7.3789063 21.3125,7.1111404 21.3125,6.78125 V 4.390625 c 0,-0.3302656 -0.300948,-0.5976562 -0.673828,-0.5976562 h -2.53125 C 18.107422,2.8029221 17.158866,2 15.988281,2 Z M 5.841797,3.8574219 C 5.101946,3.8574219 4.5,4.3896285 4.5,5.0449219 V 28.8125 C 4.5,29.467794 5.101946,30 5.841797,30 h 8.628906 3.058594 8.628906 C 26.898055,30 27.5,29.467794 27.5,28.8125 V 15.953125 5.0449219 c -4.22e-4,-0.6552952 -0.601945,-1.1875 -1.341797,-1.1875 h -4.294922 l 0.154297,0.6191406 c 0.01304,0.052006 0.01953,0.099636 0.01953,0.1445313 v 2.7167968 c 0,0.3743991 -0.344866,0.6777344 -0.767578,0.6777344 H 10.728516 c -0.422713,0 -0.765625,-0.3033353 -0.765625,-0.6777344 V 4.6210938 c 0,-0.045267 0.00648,-0.092527 0.019531,-0.1445313 L 10.136719,3.8574219 Z M 9.5,12 h 13 v 2 h -13 z m 0,5 h 13 v 2 h -13 z m 0,5 h 13 v 2 h -13 z"
       style="fill:#ffffff;fill-opacity:1;stroke-width:0.03881114" />
  </g>
</svg>
