<?xml version="1.0" encoding="UTF-8" standalone="no"?>
<svg
   xmlns:dc="http://purl.org/dc/elements/1.1/"
   xmlns:cc="http://creativecommons.org/ns#"
   xmlns:rdf="http://www.w3.org/1999/02/22-rdf-syntax-ns#"
   xmlns:svg="http://www.w3.org/2000/svg"
   xmlns="http://www.w3.org/2000/svg"
   xmlns:sodipodi="http://sodipodi.sourceforge.net/DTD/sodipodi-0.dtd"
   xmlns:inkscape="http://www.inkscape.org/namespaces/inkscape"
   id="svg4306"
   width="22"
   height="22"
   version="1.1"
   style="enable-background:new"
   sodipodi:docname="close.svg"
   inkscape:version="0.92.4 5da689c313, 2019-01-14">
  <metadata
     id="metadata31">
    <rdf:RDF>
      <cc:Work
         rdf:about="">
        <dc:format>image/svg+xml</dc:format>
        <dc:type
           rdf:resource="http://purl.org/dc/dcmitype/StillImage" />
        <dc:title />
      </cc:Work>
    </rdf:RDF>
  </metadata>
  <defs
     id="defs29" />
  <sodipodi:namedview
     pagecolor="#3a3a3a"
     bordercolor="#666666"
     borderopacity="1"
     objecttolerance="10"
     gridtolerance="10"
     guidetolerance="10"
     inkscape:pageopacity="0"
     inkscape:pageshadow="2"
     inkscape:window-width="1920"
     inkscape:window-height="1017"
     id="namedview27"
     showgrid="true"
     inkscape:zoom="10.727273"
     inkscape:cx="25.757238"
     inkscape:cy="22.4127"
     inkscape:window-x="0"
     inkscape:window-y="38"
     inkscape:window-maximized="1"
     inkscape:current-layer="svg4306">
    <inkscape:grid
       type="xygrid"
       id="grid838" />
  </sodipodi:namedview>
  <g
     id="active-center">
    <rect
       id="rect4175"
       width="22"
       height="22"
       x="0"
       y="0"
       style="opacity:0.00100002;fill:#000000;fill-opacity:1;fill-rule:nonzero;stroke:none;stroke-width:2;stroke-linecap:round;stroke-linejoin:round;stroke-miterlimit:4;stroke-dasharray:none;stroke-opacity:1" />
    <path
       style="opacity:1;fill:#eaeaea;fill-opacity:1;stroke:none;stroke-width:1.71428573;stroke-linecap:round;stroke-linejoin:round;stroke-miterlimit:4;stroke-dasharray:none;stroke-opacity:1;paint-order:stroke fill markers"
       d="M 6 6 L 6 7.4140625 L 9.5859375 11 L 6 14.585938 L 6 16 L 7.4140625 16 L 11 12.414062 L 14.585938 16 L 16 16 L 16 14.585938 L 12.414062 11 L 16 7.4140625 L 16 6 L 14.585938 6 L 11 9.5859375 L 7.4140625 6 L 6 6 z "
       id="rect840" />
  </g>
  <g
     id="inactive-center"
     transform="translate(70,1)"
     style="opacity:0.3">
    <rect
       style="opacity:0.00100002;fill:#000000;fill-opacity:1;fill-rule:nonzero;stroke:none;stroke-width:2;stroke-linecap:round;stroke-linejoin:round;stroke-miterlimit:4;stroke-dasharray:none;stroke-opacity:1"
       y="0"
       x="0"
       height="22"
       width="22"
       id="rect891" />
    <path
       style="opacity:1;fill:#eaeaea;fill-opacity:1;stroke:none;stroke-width:1.71428573;stroke-linecap:round;stroke-linejoin:round;stroke-miterlimit:4;stroke-dasharray:none;stroke-opacity:1;paint-order:stroke fill markers"
       d="M 76 7 L 76 8.4140625 L 79.585938 12 L 76 15.585938 L 76 17 L 77.414062 17 L 81 13.414062 L 84.585938 17 L 86 17 L 86 15.585938 L 82.414062 12 L 86 8.4140625 L 86 7 L 84.585938 7 L 81 10.585938 L 77.414062 7 L 76 7 z "
       transform="translate(-70,-1)"
       id="path893" />
  </g>
  <g
     style="opacity:0.3"
     transform="translate(95,1)"
     id="deactivated-center">
    <rect
       id="rect897"
       width="22"
       height="22"
       x="0"
       y="0"
       style="opacity:0.00100002;fill:#000000;fill-opacity:1;fill-rule:nonzero;stroke:none;stroke-width:2;stroke-linecap:round;stroke-linejoin:round;stroke-miterlimit:4;stroke-dasharray:none;stroke-opacity:1" />
    <path
       style="opacity:1;fill:#eaeaea;fill-opacity:1;stroke:none;stroke-width:1.71428573;stroke-linecap:round;stroke-linejoin:round;stroke-miterlimit:4;stroke-dasharray:none;stroke-opacity:1;paint-order:stroke fill markers"
       d="M 101 7 L 101 8.4140625 L 104.58594 12 L 101 15.585938 L 101 17 L 102.41406 17 L 106 13.414062 L 109.58594 17 L 111 17 L 111 15.585938 L 107.41406 12 L 111 8.4140625 L 111 7 L 109.58594 7 L 106 10.585938 L 102.41406 7 L 101 7 z "
       transform="translate(-95,-1)"
       id="path899" />
  </g>
  <g
     id="hover-center">
    <rect
       y="0"
       x="23"
       height="22"
       width="22"
       id="rect829"
       style="opacity:0.5;fill:#c83232;fill-opacity:1;stroke:none;stroke-width:4.63800764;stroke-linecap:round;stroke-linejoin:round;stroke-miterlimit:4;stroke-dasharray:none;stroke-opacity:0.19607999" />
    <path
       style="opacity:1;fill:#eaeaea;fill-opacity:1;stroke:none;stroke-width:1.71428573;stroke-linecap:round;stroke-linejoin:round;stroke-miterlimit:4;stroke-dasharray:none;stroke-opacity:1;paint-order:stroke fill markers"
       d="M 29,6 V 7.4140625 L 32.585938,11 29,14.585938 V 16 h 1.414062 L 34,12.414062 37.585938,16 H 39 V 14.585938 L 35.414062,11 39,7.4140625 V 6 H 37.585938 L 34,9.5859375 30.414062,6 Z"
       id="path858"
       inkscape:connector-curvature="0" />
  </g>
  <g
     id="pressed-center">
    <rect
       style="opacity:1;fill:#c83232;fill-opacity:1;stroke:none;stroke-width:4.63800764;stroke-linecap:round;stroke-linejoin:round;stroke-miterlimit:4;stroke-dasharray:none;stroke-opacity:0.19607999"
       id="rect831"
       width="22"
       height="22"
       x="46"
       y="0" />
    <path
       style="opacity:1;fill:#eaeaea;fill-opacity:1;stroke:none;stroke-width:1.71428573;stroke-linecap:round;stroke-linejoin:round;stroke-miterlimit:4;stroke-dasharray:none;stroke-opacity:1;paint-order:stroke fill markers"
       d="M 52,6 V 7.4140625 L 55.585938,11 52,14.585938 V 16 h 1.414062 L 57,12.414062 60.585938,16 H 62 V 14.585938 L 58.414062,11 62,7.4140625 V 6 H 60.585938 L 57,9.5859375 53.414062,6 Z"
       id="path884"
       inkscape:connector-curvature="0" />
  </g>
</svg>
