<?xml version="1.0" encoding="UTF-8" standalone="no"?>
<svg
   xmlns:dc="http://purl.org/dc/elements/1.1/"
   xmlns:cc="http://creativecommons.org/ns#"
   xmlns:rdf="http://www.w3.org/1999/02/22-rdf-syntax-ns#"
   xmlns:svg="http://www.w3.org/2000/svg"
   xmlns="http://www.w3.org/2000/svg"
   xmlns:sodipodi="http://sodipodi.sourceforge.net/DTD/sodipodi-0.dtd"
   xmlns:inkscape="http://www.inkscape.org/namespaces/inkscape"
   width="50"
   height="20"
   version="1.1"
   viewBox="0 0 50 20"
   id="svg9"
   sodipodi:docname="checkmarks.svg"
   inkscape:version="0.92.4 5da689c313, 2019-01-14">
  <metadata
     id="metadata13">
    <rdf:RDF>
      <cc:Work
         rdf:about="">
        <dc:format>image/svg+xml</dc:format>
        <dc:type
           rdf:resource="http://purl.org/dc/dcmitype/StillImage" />
        <dc:title />
      </cc:Work>
    </rdf:RDF>
  </metadata>
  <sodipodi:namedview
     pagecolor="#c8c8c8"
     bordercolor="#666666"
     borderopacity="1"
     objecttolerance="10"
     gridtolerance="10"
     guidetolerance="10"
     inkscape:pageopacity="0"
     inkscape:pageshadow="2"
     inkscape:window-width="1920"
     inkscape:window-height="1017"
     id="namedview11"
     showgrid="true"
     inkscape:zoom="15.32"
     inkscape:cx="10.926134"
     inkscape:cy="6.7171622"
     inkscape:window-x="0"
     inkscape:window-y="38"
     inkscape:window-maximized="1"
     inkscape:current-layer="svg9">
    <inkscape:grid
       type="xygrid"
       id="grid820" />
  </sodipodi:namedview>
  <defs
     id="defs3">
    <style
       id="current-color-scheme"
       type="text/css">.ColorScheme-Text {
        color:#31363b;
        stop-color:#31363b;
      }
      .ColorScheme-Background {
        color:#eff0f1;
        stop-color:#eff0f1;
      }
      .ColorScheme-Highlight {
        color:#3daee9;
        stop-color:#3daee9;
      }
      .ColorScheme-ViewText {
        color:#31363b;
        stop-color:#31363b;
      }
      .ColorScheme-ViewBackground {
        color:#fcfcfc;
        stop-color:#fcfcfc;
      }
      .ColorScheme-ViewHover {
        color:#93cee9;
        stop-color:#93cee9;
      }
      .ColorScheme-ViewFocus{
        color:#3daee9;
        stop-color:#3daee9;
      }
      .ColorScheme-ButtonText {
        color:#31363b;
        stop-color:#31363b;
      }
      .ColorScheme-ButtonBackground {
        color:#eff0f1;
        stop-color:#eff0f1;
      }
      .ColorScheme-ButtonHover {
        color:#93cee9;
        stop-color:#93cee9;
      }
      .ColorScheme-ButtonFocus{
        color:#3daee9;
        stop-color:#3daee9;
      }</style>
  </defs>
  <path
     style="fill:#3278ff;fill-opacity:1"
     inkscape:connector-curvature="0"
     d="m 40.59,0.41 h -14 c -1.11,0 -2,0.9 -2,2 v 14 c 0,1.1 0.89,2 2,2 h 14 c 1.11,0 2,-0.9 2,-2 v -14 c 0,-1.1 -0.89,-2 -2,-2 z m -9,14 -5,-5 L 28,8 l 3.59,3.58 7.59,-7.59 1.41,1.42 z"
     id="checkbox" />
  <path
     style="fill:#3278ff;fill-opacity:1"
     inkscape:connector-curvature="0"
     d="m 10,5 c -2.76,0 -5,2.24 -5,5 0,2.76 2.24,5 5,5 2.76,0 5,-2.24 5,-5 C 15,7.24 12.76,5 10,5 Z M 10,0 C 4.48,0 0,4.48 0,10 0,15.52 4.48,20 10,20 15.52,20 20,15.52 20,10 20,4.48 15.52,0 10,0 Z m 0,18 C 5.58,18 2,14.42 2,10 2,5.58 5.58,2 10,2 c 4.42,0 8,3.58 8,8 0,4.42 -3.58,8 -8,8 z"
     id="radiobutton" />
</svg>
