<?xml version="1.0" encoding="UTF-8" standalone="no"?>
<svg
   xmlns:dc="http://purl.org/dc/elements/1.1/"
   xmlns:cc="http://creativecommons.org/ns#"
   xmlns:rdf="http://www.w3.org/1999/02/22-rdf-syntax-ns#"
   xmlns:svg="http://www.w3.org/2000/svg"
   xmlns="http://www.w3.org/2000/svg"
   xmlns:sodipodi="http://sodipodi.sourceforge.net/DTD/sodipodi-0.dtd"
   xmlns:inkscape="http://www.inkscape.org/namespaces/inkscape"
   inkscape:version="1.0 (4035a4fb49, 2020-05-01)"
   sodipodi:docname="slider.svg"
   id="svg68"
   version="1.1"
   height="66"
   width="76">
  <metadata
     id="metadata74">
    <rdf:RDF>
      <cc:Work
         rdf:about="">
        <dc:format>image/svg+xml</dc:format>
        <dc:type
           rdf:resource="http://purl.org/dc/dcmitype/StillImage" />
        <dc:title />
      </cc:Work>
    </rdf:RDF>
  </metadata>
  <defs
     id="defs72" />
  <sodipodi:namedview
     inkscape:document-rotation="0"
     inkscape:current-layer="svg68"
     inkscape:window-maximized="1"
     inkscape:window-y="32"
     inkscape:window-x="0"
     inkscape:cy="20.219716"
     inkscape:cx="30.786939"
     inkscape:zoom="8.9690913"
     showgrid="false"
     id="namedview70"
     inkscape:window-height="1023"
     inkscape:window-width="1920"
     inkscape:pageshadow="2"
     inkscape:pageopacity="0"
     guidetolerance="10"
     gridtolerance="10"
     objecttolerance="10"
     borderopacity="1"
     bordercolor="#666666"
     pagecolor="#969696" />
  <g
     id="horizontal-slider-handle"
     transform="matrix(0.75,0,0,0.75,-18.75,28)"
     style="stroke-width:0.91667002">
    <rect
       x="25"
       y="4"
       width="32"
       height="32"
       id="rect2"
       style="opacity:0" />
    <circle
       cx="41"
       cy="20"
       r="8"
       id="circle4"
       style="fill:#eaeaea;fill-opacity:1" />
  </g>
  <g
     id="horizontal-slider-hover"
     transform="matrix(0.75,0,0,0.75,6.25,27)"
     style="stroke-width:0.91667002">
    <rect
       x="25"
       y="4"
       width="32"
       height="32"
       id="rect7"
       style="opacity:0" />
    <circle
       cx="41"
       cy="20"
       r="16"
       id="circle9"
       style="opacity:0.2;fill:#eaeaea;fill-opacity:1" />
    <circle
       cx="41"
       cy="20"
       r="8"
       id="circle11"
       style="fill:#eaeaea;fill-opacity:1" />
  </g>
  <g
     id="horizontal-slider-focus"
     transform="matrix(0.75,0,0,0.75,31.25,28)"
     style="stroke-width:0.91667002">
    <rect
       x="25"
       y="4"
       width="32"
       height="32"
       id="rect14"
       style="opacity:0" />
    <circle
       cx="41"
       cy="20"
       r="16"
       id="circle16"
       style="opacity:0.3;fill:#eaeaea;fill-opacity:1" />
    <circle
       cx="41"
       cy="20"
       r="8"
       id="circle18"
       style="fill:#eaeaea;fill-opacity:1" />
  </g>
  <g
     id="vertical-slider-handle"
     transform="matrix(0.75,0,0,0.75,-18.75,-3)"
     style="stroke-width:0.91667002">
    <rect
       x="25"
       y="4"
       width="32"
       height="32"
       id="rect21"
       style="opacity:0" />
    <circle
       cx="41"
       cy="20"
       r="8"
       id="circle23"
       style="fill:#eaeaea;fill-opacity:1" />
  </g>
  <g
     id="vertical-slider-hover"
     transform="matrix(0.75,0,0,0.75,6.25,-3)"
     style="stroke-width:0.91667002">
    <rect
       x="25"
       y="4"
       width="32"
       height="32"
       id="rect26"
       style="opacity:0" />
    <circle
       cx="41"
       cy="20"
       r="16"
       id="circle28"
       style="opacity:0.2;fill:#eaeaea;fill-opacity:1" />
    <circle
       cx="41"
       cy="20"
       r="8"
       id="circle30"
       style="fill:#eaeaea;fill-opacity:1" />
  </g>
  <g
     id="vertical-slider-focus"
     transform="matrix(0.75,0,0,0.75,31.25,-3)"
     style="stroke-width:0.91667002">
    <rect
       x="25"
       y="4"
       width="32"
       height="32"
       id="rect33"
       style="opacity:0" />
    <circle
       cx="41"
       cy="20"
       r="16"
       id="circle35"
       style="opacity:0.3;fill:#eaeaea;fill-opacity:1" />
    <circle
       cx="41"
       cy="20"
       r="8"
       id="circle37"
       style="fill:#eaeaea;fill-opacity:1" />
  </g>
  <rect
     fill="#4e9a06"
     ry="2"
     rx="0"
     height="2"
     width="2"
     y="-24"
     x="-1"
     id="hint-tile-center" />
  <circle
     fill="#ff2a2a"
     r="12"
     cy="-15.313"
     cx="50.955"
     id="hint-handle-size" />
  <path
     style="fill:#000000;fill-opacity:1"
     opacity=".3"
     d="m7-20v1h1v-1z"
     class="ColorScheme-Text"
     id="groove-top" />
  <path
     style="fill:#000000;fill-opacity:1"
     opacity=".3"
     d="m6-20.02c-0.56073 0-1 0.44793-1 1.0197h1z"
     class="ColorScheme-Text"
     id="groove-topleft" />
  <path
     style="fill:#000000;fill-opacity:1"
     opacity=".3"
     d="m10-19c0-0.51627-0.43927-0.92071-1-0.92071v0.92071z"
     class="ColorScheme-Text"
     id="groove-topright" />
  <path
     id="groove-bottom"
     class="ColorScheme-Text"
     d="m 7,-15 v -1 h 1 v 1 z"
     inkscape:connector-curvature="0"
     style="opacity:0.3;fill:#000000;fill-opacity:1" />
  <path
     id="groove-bottomleft"
     class="ColorScheme-Text"
     d="m 6,-15 c -0.49777,0 -0.8877,-0.43927 -0.8877,-1 H 6 Z"
     inkscape:connector-curvature="0"
     style="opacity:0.3;fill:#000000;fill-opacity:1" />
  <path
     id="groove-bottomright"
     class="ColorScheme-Text"
     d="m 10,-16 c 0,0.56073 -0.43927,1 -1,1 v -1 z"
     inkscape:connector-curvature="0"
     style="opacity:0.3;fill:#000000;fill-opacity:1" />
  <path
     id="groove-center"
     class="ColorScheme-Text"
     d="m 7,-18 v 1 h 1 v -1 z"
     inkscape:connector-curvature="0"
     style="opacity:0.3;fill:#000000;fill-opacity:1" />
  <path
     id="groove-left"
     class="ColorScheme-Text"
     d="m 5,-18 v 1 h 1 v -1 z"
     inkscape:connector-curvature="0"
     style="opacity:0.3;fill:#000000;fill-opacity:1" />
  <path
     id="groove-right"
     class="ColorScheme-Text"
     d="m 9,-18 v 1 h 1 v -1 z"
     inkscape:connector-curvature="0"
     style="opacity:0.3;fill:#000000;fill-opacity:1" />
  <path
     id="groove-highlight-top"
     class="ColorScheme-ButtonHover"
     d="m 25,-20 v 1 h 1 v -1 z"
     inkscape:connector-curvature="0"
     style="fill:#eaeaea;fill-opacity:1" />
  <path
     id="groove-highlight-topleft"
     class="ColorScheme-ButtonHover"
     d="m 24,-20 c -0.56073,0 -1,0.43927 -1,1 h 1 z"
     inkscape:connector-curvature="0"
     style="fill:#eaeaea;fill-opacity:1" />
  <path
     id="groove-highlight-topright"
     class="ColorScheme-ButtonHover"
     d="m 28,-19 c 0,-0.56073 -0.43927,-1 -1,-1 v 1 z"
     inkscape:connector-curvature="0"
     style="fill:#eaeaea;fill-opacity:1" />
  <path
     id="groove-highlight-bottom"
     class="ColorScheme-ButtonHover"
     d="m 25,-15 v -1 h 1 v 1 z"
     inkscape:connector-curvature="0"
     style="fill:#eaeaea;fill-opacity:1" />
  <path
     id="groove-highlight-bottomleft"
     class="ColorScheme-ButtonHover"
     d="m 24,-15 c -0.56987,0 -1.0163,-0.43927 -1.0163,-1 H 24 Z"
     inkscape:connector-curvature="0"
     style="fill:#eaeaea;fill-opacity:1" />
  <path
     id="groove-highlight-bottomright"
     class="ColorScheme-ButtonHover"
     d="m 28.04,-16 c 0,0.56073 -0.45667,1 -1.0396,1 v -1 z"
     inkscape:connector-curvature="0"
     style="fill:#eaeaea;fill-opacity:1" />
  <path
     id="groove-highlight-center"
     class="ColorScheme-ButtonHover"
     d="m 25,-18 v 1 h 1 v -1 z"
     inkscape:connector-curvature="0"
     style="fill:#eaeaea;fill-opacity:1" />
  <path
     id="groove-highlight-left"
     class="ColorScheme-ButtonHover"
     d="m 23,-18 v 1 h 1 v -1 z"
     inkscape:connector-curvature="0"
     style="fill:#eaeaea;fill-opacity:1" />
  <path
     id="groove-highlight-right"
     class="ColorScheme-ButtonHover"
     d="m 27,-18 v 1 h 1 v -1 z"
     inkscape:connector-curvature="0"
     style="fill:#eaeaea;fill-opacity:1" />
</svg>
