<?xml version="1.0" encoding="UTF-8" standalone="no"?>
<svg
   xmlns:dc="http://purl.org/dc/elements/1.1/"
   xmlns:cc="http://creativecommons.org/ns#"
   xmlns:rdf="http://www.w3.org/1999/02/22-rdf-syntax-ns#"
   xmlns:svg="http://www.w3.org/2000/svg"
   xmlns="http://www.w3.org/2000/svg"
   xmlns:sodipodi="http://sodipodi.sourceforge.net/DTD/sodipodi-0.dtd"
   xmlns:inkscape="http://www.inkscape.org/namespaces/inkscape"
   width="500"
   height="300"
   version="1.1"
   id="svg112"
   sodipodi:docname="tabbar.svg"
   inkscape:version="0.92.4 5da689c313, 2019-01-14">
  <metadata
     id="metadata116">
    <rdf:RDF>
      <cc:Work
         rdf:about="">
        <dc:format>image/svg+xml</dc:format>
        <dc:type
           rdf:resource="http://purl.org/dc/dcmitype/StillImage" />
        <dc:title />
      </cc:Work>
    </rdf:RDF>
  </metadata>
  <sodipodi:namedview
     pagecolor="#3a3a3a"
     bordercolor="#666666"
     borderopacity="1"
     objecttolerance="10"
     gridtolerance="10"
     guidetolerance="10"
     inkscape:pageopacity="0"
     inkscape:pageshadow="2"
     inkscape:window-width="1920"
     inkscape:window-height="1017"
     id="namedview114"
     showgrid="true"
     showguides="true"
     inkscape:guide-bbox="true"
     inkscape:zoom="5.0741833"
     inkscape:cx="328.82906"
     inkscape:cy="169.71057"
     inkscape:window-x="0"
     inkscape:window-y="38"
     inkscape:window-maximized="1"
     inkscape:current-layer="svg112"
     inkscape:snap-bbox="true"
     inkscape:snap-bbox-edge-midpoints="true"
     inkscape:bbox-nodes="true">
    <inkscape:grid
       type="xygrid"
       id="grid943" />
  </sodipodi:namedview>
  <defs
     id="defs3">
    <style
       id="current-color-scheme"
       type="text/css">.ColorScheme-Text {
        color:#31363b;
      }
      .ColorScheme-Background{
        color:#eff0f1;
      }
      .ColorScheme-ViewText {
        color:#31363b;
      }
      .ColorScheme-ViewBackground{
        color:#fcfcfc;
      }
      .ColorScheme-ViewHover {
        color:#3daee9;
      }
      .ColorScheme-ViewFocus{
        color:#3daee9;
      }
      .ColorScheme-ButtonText {
        color:#31363b;
      }
      .ColorScheme-ButtonBackground{
        color:#eff0f1;
      }
      .ColorScheme-ButtonHover {
        color:#3daee9;
      }
      .ColorScheme-ButtonFocus{
        color:#3daee9;
      }</style>
  </defs>
  <g
     id="north-active-tab-top"
     transform="matrix(0.81250094,0,0,1.6666698,290.56249,-1450.2732)">
    <rect
       y="-50.999985"
       x="-916.36218"
       height="32"
       width="6"
       id="rect4152"
       style="color:#eff0f1;opacity:0.25;fill:#646464;fill-opacity:1;stroke:none"
       transform="matrix(0,-1,-1,0,0,0)"
       class="ColorScheme-Background" />
  </g>
  <g
     id="north-active-tab-topleft"
     transform="matrix(0.83333453,0,0,0.83333453,283.16668,-691.63644)">
    <path
       style="opacity:0.25;fill:#646464;fill-opacity:1;stroke:none;stroke-width:1.66666901"
       d="M 294 67 L 294 77 L 304 77 L 304 75.333984 L 304 68.666016 L 304 67 L 294 67 z "
       transform="matrix(1.1999983,0,0,1.1999983,-339.79953,829.96254)"
       id="rect4159" />
  </g>
  <g
     id="north-active-tab-topright"
     transform="matrix(0.83333731,0,0,0.83333731,296.49976,-691.63894)">
    <path
       style="opacity:0.25;fill:#646464;fill-opacity:1;stroke:none;stroke-width:1.66666901"
       d="M 334 67 L 334 68.666016 L 334 75.333984 L 334 77 L 344 77 L 344 67 L 334 67 z "
       transform="matrix(1.1999943,0,0,1.1999943,-355.79801,829.96277)"
       id="rect4177" />
  </g>
  <g
     id="north-active-tab-bottom"
     transform="matrix(0.81250094,0,0,1.6666612,290.56249,-1479.5986)">
    <rect
       transform="rotate(90)"
       style="color:#eff0f1;opacity:0.25;fill:#646464;fill-opacity:1;stroke:none"
       id="rect4148"
       width="6"
       height="32"
       x="948.36218"
       y="-50.999985"
       class="ColorScheme-Background" />
  </g>
  <g
     id="north-active-tab-bottomleft"
     transform="matrix(0.83333074,0,0,0.83333074,283.16673,-684.29954)">
    <path
       style="opacity:0.25;fill:#646464;fill-opacity:1;stroke:none;stroke-width:1.66666424"
       d="M 294 101 L 294 111 L 304 111 L 304 109.33398 L 304 102.66602 L 304 101 L 294 101 z "
       transform="matrix(1.2000037,0,0,1.2000037,-339.80113,821.162)"
       id="path5048" />
  </g>
  <g
     id="north-active-tab-bottomright"
     transform="matrix(0.83333074,0,0,0.83333074,296.50014,-684.29954)">
    <path
       style="opacity:0.25;fill:#646464;fill-opacity:1;stroke:none;stroke-width:1.66666424"
       d="M 334 101 L 334 102.66602 L 334 109.33398 L 334 111 L 344 111 L 344 101 L 334 101 z "
       transform="matrix(1.2000037,0,0,1.2000037,-355.80128,821.162)"
       id="rect4177-6" />
  </g>
  <g
     id="north-active-tab-left"
     transform="matrix(1.6666667,0,0,0.62499857,272.33336,-493.72514)">
    <rect
       transform="scale(-1,1)"
       style="color:#eff0f1;opacity:0.25;fill:#646464;fill-opacity:1;stroke:none"
       id="rect4144"
       width="5.9999995"
       height="32"
       x="-19.000004"
       y="916.36218"
       class="ColorScheme-Background" />
  </g>
  <g
     id="north-active-tab-right"
     transform="matrix(1.6666578,0,0,0.62499857,249.00051,-493.72514)">
    <rect
       y="916.36218"
       x="50.999985"
       height="32"
       width="5.9999995"
       id="rect4140"
       style="color:#eff0f1;opacity:0.25;fill:#646464;fill-opacity:1;stroke:none"
       class="ColorScheme-Background" />
  </g>
  <rect
     class="ColorScheme-Background"
     y="78.999863"
     x="306.00003"
     height="19.999992"
     width="25.999981"
     id="north-active-tab-center"
     style="color:#eff0f1;opacity:0.25;fill:#646464;fill-opacity:1;stroke:none;stroke-width:0.71260923" />
  <rect
     id="hint-tile-center"
     x="40"
     y="120"
     width="41.362999"
     height="41.120998"
     style="opacity:0.875;fill:#008000" />
  <rect
     id="north-focus-hint-right-margin"
     transform="scale(-1)"
     x="-344.00003"
     y="-89.999863"
     width="18"
     height="2"
     style="fill:#4e9a06;stroke-width:1.09544516" />
  <rect
     id="north-focus-hint-left-margin"
     transform="scale(-1)"
     x="-312.00003"
     y="-89.999863"
     width="18"
     height="2"
     style="fill:#4e9a06;stroke-width:1.09544516" />
  <rect
     id="north-focus-hint-bottom-margin"
     transform="scale(-1)"
     x="-320.00003"
     y="-110.99986"
     width="2"
     height="12"
     style="fill:#4e9a06;stroke-width:0.77459669" />
  <rect
     id="north-focus-hint-top-margin"
     transform="scale(-1)"
     x="-320.00003"
     y="-78.999863"
     width="2"
     height="12"
     style="fill:#4e9a06;stroke-width:1.09544516" />
  <g
     id="south-active-tab-top"
     transform="matrix(0.81250095,0,0,1.6666698,290.56249,-1340.2732)">
    <rect
       y="-50.999985"
       x="-916.36218"
       height="32"
       width="6"
       id="rect4152-3"
       style="color:#eff0f1;opacity:0.25;fill:#646464;fill-opacity:1;stroke:none"
       transform="matrix(0,-1,-1,0,0,0)"
       class="ColorScheme-Background" />
  </g>
  <g
     id="south-active-tab-topleft"
     transform="matrix(0.83333454,0,0,0.83333454,283.16668,-581.63644)">
    <path
       style="opacity:0.25;fill:#646464;fill-opacity:1;stroke:none;stroke-width:1.66666913"
       d="M 294 177 L 294 187 L 304 187 L 304 185.33398 L 304 178.66602 L 304 177 L 294 177 z "
       transform="matrix(1.1999983,0,0,1.1999983,-339.79952,697.96272)"
       id="rect4159-6" />
  </g>
  <g
     id="south-active-tab-topright"
     transform="matrix(0.8333373,0,0,0.8333373,296.49976,-581.63884)">
    <path
       style="opacity:0.25;fill:#646464;fill-opacity:1;stroke:none;stroke-width:1.66666901"
       d="M 334 177 L 334 178.66602 L 334 185.33398 L 334 187 L 344 187 L 344 177 L 334 177 z "
       transform="matrix(1.1999943,0,0,1.1999943,-355.79802,697.96329)"
       id="rect4177-7" />
  </g>
  <g
     id="south-active-tab-bottom"
     transform="matrix(0.81250095,0,0,1.6666612,290.56249,-1369.5987)">
    <rect
       transform="rotate(90)"
       style="color:#eff0f1;opacity:0.25;fill:#646464;fill-opacity:1;stroke:none"
       id="rect4148-5"
       width="6"
       height="32"
       x="948.36218"
       y="-50.999985"
       class="ColorScheme-Background" />
  </g>
  <g
     id="south-active-tab-bottomleft"
     transform="matrix(0.83333072,0,0,0.83333072,283.16673,-574.29944)">
    <path
       style="opacity:0.25;fill:#646464;fill-opacity:1;stroke:none;stroke-width:1.66666424"
       d="M 294 211 L 294 221 L 304 221 L 304 219.33398 L 304 212.66602 L 304 211 L 294 211 z "
       transform="matrix(1.2000038,0,0,1.2000038,-339.80114,689.16149)"
       id="path5048-3" />
  </g>
  <g
     id="south-active-tab-bottomright"
     transform="matrix(0.83333072,0,0,0.83333072,296.50014,-574.29944)">
    <path
       style="opacity:0.25;fill:#646464;fill-opacity:1;stroke:none;stroke-width:1.66666424"
       d="M 334 211 L 334 212.66602 L 334 219.33398 L 334 221 L 344 221 L 344 211 L 334 211 z "
       transform="matrix(1.2000038,0,0,1.2000038,-355.80128,689.16149)"
       id="rect4177-6-5" />
  </g>
  <g
     id="south-active-tab-left"
     transform="matrix(1.6666667,0,0,0.62499855,272.33336,-383.72514)">
    <rect
       transform="scale(-1,1)"
       style="color:#eff0f1;opacity:0.25;fill:#646464;fill-opacity:1;stroke:none"
       id="rect4144-6"
       width="5.9999995"
       height="32"
       x="-19.000004"
       y="916.36218"
       class="ColorScheme-Background" />
  </g>
  <g
     id="south-active-tab-right"
     transform="matrix(1.6666578,0,0,0.62499855,249.00051,-383.72514)">
    <rect
       y="916.36218"
       x="50.999985"
       height="32"
       width="5.9999995"
       id="rect4140-2"
       style="color:#eff0f1;opacity:0.25;fill:#646464;fill-opacity:1;stroke:none"
       class="ColorScheme-Background" />
  </g>
  <rect
     class="ColorScheme-Background"
     y="188.99986"
     x="306.00003"
     height="19.999992"
     width="25.999983"
     id="south-active-tab-center"
     style="color:#eff0f1;opacity:0.25;fill:#646464;fill-opacity:1;stroke:none;stroke-width:0.71260923" />
  <rect
     id="south-focus-hint-right-margin"
     transform="scale(-1)"
     x="-344.00003"
     y="-199.99986"
     width="18"
     height="1.9999999"
     style="fill:#4e9a06;stroke-width:1.09544516" />
  <rect
     id="south-focus-hint-left-margin"
     transform="scale(-1)"
     x="-312.00003"
     y="-199.99986"
     width="18"
     height="1.9999999"
     style="fill:#4e9a06;stroke-width:1.09544516" />
  <rect
     id="south-focus-hint-bottom-margin"
     transform="scale(-1)"
     x="-320.00003"
     y="-220.99986"
     width="1.9999999"
     height="12"
     style="fill:#4e9a06;stroke-width:0.77459669" />
  <rect
     id="south-focus-hint-top-margin"
     transform="scale(-1)"
     x="-320.00003"
     y="-188.99986"
     width="1.9999999"
     height="12"
     style="fill:#4e9a06;stroke-width:1.09544516" />
  <g
     id="west-active-tab-top"
     transform="matrix(0.81250095,0,0,1.6666698,209.56249,-1392.2732)">
    <rect
       y="-50.999985"
       x="-916.36218"
       height="32"
       width="6"
       id="rect4152-9"
       style="color:#eff0f1;opacity:0.25;fill:#646464;fill-opacity:1;stroke:none"
       transform="matrix(0,-1,-1,0,0,0)"
       class="ColorScheme-Background" />
  </g>
  <g
     id="west-active-tab-topleft"
     transform="matrix(0.83333454,0,0,0.83333454,202.16668,-633.63644)">
    <path
       style="opacity:0.25;fill:#646464;fill-opacity:1;stroke:none;stroke-width:1.66666913"
       d="M 213 125 L 213 135 L 223 135 L 223 133.33398 L 223 126.66602 L 223 125 L 213 125 z "
       transform="matrix(1.1999983,0,0,1.1999983,-242.59966,760.36263)"
       id="rect4159-1" />
  </g>
  <g
     id="west-active-tab-topright"
     transform="matrix(0.8333373,0,0,0.8333373,215.49976,-633.63884)">
    <path
       style="opacity:0.25;fill:#646464;fill-opacity:1;stroke:none;stroke-width:1.66666901"
       d="M 253 125 L 253 126.66602 L 253 133.33398 L 253 135 L 263 135 L 263 125 L 253 125 z "
       transform="matrix(1.1999943,0,0,1.1999943,-258.59848,760.36299)"
       id="rect4177-2" />
  </g>
  <g
     id="west-active-tab-bottom"
     transform="matrix(0.81250095,0,0,1.6666612,209.56249,-1421.5987)">
    <rect
       transform="rotate(90)"
       style="color:#eff0f1;opacity:0.25;fill:#646464;fill-opacity:1;stroke:none"
       id="rect4148-7"
       width="6"
       height="32"
       x="948.36218"
       y="-50.999985"
       class="ColorScheme-Background" />
  </g>
  <g
     id="west-active-tab-bottomleft"
     transform="matrix(0.83333072,0,0,0.83333072,202.16673,-626.29944)">
    <path
       style="opacity:0.25;fill:#646464;fill-opacity:1;stroke:none;stroke-width:1.66666424"
       d="M 213 159 L 213 169 L 223 169 L 223 167.33398 L 223 160.66602 L 223 159 L 213 159 z "
       transform="matrix(1.2000038,0,0,1.2000038,-242.60084,751.56168)"
       id="path5048-0" />
  </g>
  <g
     id="west-active-tab-bottomright"
     transform="matrix(0.83333072,0,0,0.83333072,215.50014,-626.29944)">
    <path
       style="opacity:0.25;fill:#646464;fill-opacity:1;stroke:none;stroke-width:1.66666424"
       d="M 253 159 L 253 160.66602 L 253 167.33398 L 253 169 L 263 169 L 263 159 L 253 159 z "
       transform="matrix(1.2000038,0,0,1.2000038,-258.60098,751.56168)"
       id="rect4177-6-9" />
  </g>
  <g
     id="west-active-tab-left"
     transform="matrix(1.6666667,0,0,0.62499855,191.33336,-435.72514)">
    <rect
       transform="scale(-1,1)"
       style="color:#eff0f1;opacity:0.25;fill:#646464;fill-opacity:1;stroke:none"
       id="rect4144-3"
       width="5.9999995"
       height="32"
       x="-19.000004"
       y="916.36218"
       class="ColorScheme-Background" />
  </g>
  <g
     id="west-active-tab-right"
     transform="matrix(1.6666578,0,0,0.62499855,168.00051,-435.72514)">
    <rect
       y="916.36218"
       x="50.999985"
       height="32"
       width="5.9999995"
       id="rect4140-6"
       style="color:#eff0f1;opacity:0.25;fill:#646464;fill-opacity:1;stroke:none"
       class="ColorScheme-Background" />
  </g>
  <rect
     class="ColorScheme-Background"
     y="136.99986"
     x="225.00005"
     height="19.999992"
     width="25.999983"
     id="west-active-tab-center"
     style="color:#eff0f1;opacity:0.25;fill:#646464;fill-opacity:1;stroke:none;stroke-width:0.71260923" />
  <rect
     id="west-focus-hint-right-margin"
     transform="scale(-1)"
     x="-263.00003"
     y="-147.99986"
     width="12"
     height="1.9999999"
     style="fill:#4e9a06;stroke-width:0.89442724" />
  <rect
     id="west-focus-hint-left-margin"
     transform="scale(-1)"
     x="-225.00005"
     y="-147.99986"
     width="11.999985"
     height="1.9999999"
     style="fill:#4e9a06;stroke-width:0.89442664" />
  <rect
     id="west-focus-hint-bottom-margin"
     transform="scale(-1)"
     x="-239.00005"
     y="-168.99986"
     width="1.9999999"
     height="12"
     style="fill:#4e9a06;stroke-width:0.77459669" />
  <rect
     id="west-focus-hint-top-margin"
     transform="scale(-1)"
     x="-239.00005"
     y="-136.99986"
     width="1.9999999"
     height="12"
     style="fill:#4e9a06;stroke-width:1.09544516" />
  <g
     id="east-active-tab-top"
     transform="matrix(0.81250095,0,0,1.6666698,373.56248,-1394.2731)">
    <rect
       y="-50.999985"
       x="-916.36218"
       height="32"
       width="6"
       id="rect4152-0"
       style="color:#eff0f1;opacity:0.25;fill:#646464;fill-opacity:1;stroke:none"
       transform="matrix(0,-1,-1,0,0,0)"
       class="ColorScheme-Background" />
  </g>
  <g
     id="east-active-tab-topleft"
     transform="matrix(0.83333454,0,0,0.83333454,366.16667,-635.63632)">
    <path
       style="opacity:0.25;fill:#646464;fill-opacity:1;stroke:none;stroke-width:1.66666913"
       d="M 377 123 L 377 133 L 387 133 L 387 131.33398 L 387 124.66602 L 387 123 L 377 123 z "
       transform="matrix(1.1999983,0,0,1.1999983,-439.39937,762.76248)"
       id="rect4159-62" />
  </g>
  <g
     id="east-active-tab-topright"
     transform="matrix(0.8333373,0,0,0.8333373,379.49975,-635.63882)">
    <path
       style="opacity:0.25;fill:#646464;fill-opacity:1;stroke:none;stroke-width:1.66666901"
       d="M 417 123 L 417 124.66602 L 417 131.33398 L 417 133 L 427 133 L 427 123 L 417 123 z "
       transform="matrix(1.1999943,0,0,1.1999943,-455.39753,762.76295)"
       id="rect4177-61" />
  </g>
  <g
     id="east-active-tab-bottom"
     transform="matrix(0.81250095,0,0,1.6666612,373.56248,-1423.5986)">
    <rect
       transform="rotate(90)"
       style="color:#eff0f1;opacity:0.25;fill:#646464;fill-opacity:1;stroke:none"
       id="rect4148-8"
       width="6"
       height="32"
       x="948.36218"
       y="-50.999985"
       class="ColorScheme-Background" />
  </g>
  <g
     id="east-active-tab-bottomleft"
     transform="matrix(0.83333072,0,0,0.83333072,366.16672,-628.29932)">
    <path
       style="opacity:0.25;fill:#646464;fill-opacity:1;stroke:none;stroke-width:1.66666424"
       d="M 377 157 L 377 167 L 387 167 L 387 165.33398 L 387 158.66602 L 387 157 L 377 157 z "
       transform="matrix(1.2000038,0,0,1.2000038,-439.40144,753.96155)"
       id="path5048-7" />
  </g>
  <g
     id="east-active-tab-bottomright"
     transform="matrix(0.83333072,0,0,0.83333072,379.50013,-628.29932)">
    <path
       style="opacity:0.25;fill:#646464;fill-opacity:1;stroke:none;stroke-width:1.66666424"
       d="M 417 157 L 417 158.66602 L 417 165.33398 L 417 167 L 427 167 L 427 157 L 417 157 z "
       transform="matrix(1.2000038,0,0,1.2000038,-455.40158,753.96155)"
       id="rect4177-6-92" />
  </g>
  <g
     id="east-active-tab-left"
     transform="matrix(1.6666667,0,0,0.62499855,355.33335,-437.72502)">
    <rect
       transform="scale(-1,1)"
       style="color:#eff0f1;opacity:0.25;fill:#646464;fill-opacity:1;stroke:none"
       id="rect4144-0"
       width="5.9999995"
       height="32"
       x="-19.000004"
       y="916.36218"
       class="ColorScheme-Background" />
  </g>
  <g
     id="east-active-tab-right"
     transform="matrix(1.6666578,0,0,0.62499855,332.0005,-437.72502)">
    <rect
       y="916.36218"
       x="50.999985"
       height="32"
       width="5.9999995"
       id="rect4140-23"
       style="color:#eff0f1;opacity:0.25;fill:#646464;fill-opacity:1;stroke:none"
       class="ColorScheme-Background" />
  </g>
  <rect
     class="ColorScheme-Background"
     y="134.99998"
     x="389.00003"
     height="19.999992"
     width="25.999983"
     id="east-active-tab-center"
     style="color:#eff0f1;opacity:0.25;fill:#646464;fill-opacity:1;stroke:none;stroke-width:0.71260923" />
  <rect
     id="east-focus-hint-right-margin"
     transform="scale(-1)"
     x="-427.00003"
     y="-145.99998"
     width="12"
     height="1.9999999"
     style="fill:#4e9a06;stroke-width:0.89442724" />
  <rect
     id="east-focus-hint-left-margin"
     transform="scale(-1)"
     x="-389.00003"
     y="-145.99998"
     width="12"
     height="1.9999999"
     style="fill:#4e9a06;stroke-width:0.89442724" />
  <rect
     id="east-focus-hint-bottom-margin"
     transform="scale(-1)"
     x="-403.00003"
     y="-166.99998"
     width="1.9999999"
     height="12"
     style="fill:#4e9a06;stroke-width:0.77459669" />
  <rect
     id="east-focus-hint-top-margin"
     transform="scale(-1)"
     x="-403.00003"
     y="-134.99998"
     width="1.9999999"
     height="12"
     style="fill:#4e9a06;stroke-width:1.09544516" />
</svg>
